solid OpenSCAD_Model
  facet normal 1 -0 0
    outer loop
      vertex 101.6 0 25.4
      vertex 101.6 50.8 0
      vertex 101.6 50.8 25.4
    endloop
  endfacet
  facet normal 1 0 0
    outer loop
      vertex 101.6 50.8 0
      vertex 101.6 0 25.4
      vertex 101.6 0 0
    endloop
  endfacet
  facet normal -0 0 1
    outer loop
      vertex 33.0542 27.1762 25.4
      vertex 35.0292 21.7387 25.4
      vertex 35.0292 28.3638 25.4
    endloop
  endfacet
  facet normal 0 0 1
    outer loop
      vertex 33.0542 27.1762 25.4
      vertex 32.9043 21.7387 25.4
      vertex 35.0292 21.7387 25.4
    endloop
  endfacet
  facet normal 0 0 1
    outer loop
      vertex 0 0 25.4
      vertex 32.9043 21.7387 25.4
      vertex 32.6042 27.9138 25.4
    endloop
  endfacet
  facet normal 0 0 1
    outer loop
      vertex 32.6042 27.9138 25.4
      vertex 32.9043 21.7387 25.4
      vertex 33.0542 27.1762 25.4
    endloop
  endfacet
  facet normal 0 0 1
    outer loop
      vertex 63.9774 28.7637 25.4
      vertex 65.515 27.2013 25.4
      vertex 65.4101 27.8514 25.4
    endloop
  endfacet
  facet normal 0 0 1
    outer loop
      vertex 64.6237 28.6549 25.4
      vertex 65.4101 27.8514 25.4
      vertex 65.1072 28.3434 25.4
    endloop
  endfacet
  facet normal -0 0 1
    outer loop
      vertex 63.4052 28.7108 25.4
      vertex 65.515 27.2013 25.4
      vertex 63.9774 28.7637 25.4
    endloop
  endfacet
  facet normal 0 0 1
    outer loop
      vertex 65.4101 27.8514 25.4
      vertex 64.6237 28.6549 25.4
      vertex 63.9774 28.7637 25.4
    endloop
  endfacet
  facet normal 0 0 1
    outer loop
      vertex 65.515 27.2013 25.4
      vertex 63.4052 28.7108 25.4
      vertex 65.3548 26.1895 25.4
    endloop
  endfacet
  facet normal -0 0 1
    outer loop
      vertex 62.9337 28.5466 25.4
      vertex 65.3548 26.1895 25.4
      vertex 63.4052 28.7108 25.4
    endloop
  endfacet
  facet normal -0 0 1
    outer loop
      vertex 62.115 27.8512 25.4
      vertex 65.3548 26.1895 25.4
      vertex 62.5185 28.2628 25.4
    endloop
  endfacet
  facet normal 0 0 1
    outer loop
      vertex 65.3548 26.1895 25.4
      vertex 62.9337 28.5466 25.4
      vertex 62.5185 28.2628 25.4
    endloop
  endfacet
  facet normal 0 0 1
    outer loop
      vertex 65.3548 26.1895 25.4
      vertex 62.115 27.8512 25.4
      vertex 64.7587 25.1075 25.4
    endloop
  endfacet
  facet normal 0 0 1
    outer loop
      vertex 64.7587 25.1075 25.4
      vertex 62.115 27.8512 25.4
      vertex 63.5533 23.7067 25.4
    endloop
  endfacet
  facet normal 0 0 1
    outer loop
      vertex 62.115 27.8512 25.4
      vertex 61.565 21.7387 25.4
      vertex 63.5533 23.7067 25.4
    endloop
  endfacet
  facet normal -0 0 1
    outer loop
      vertex 55.4531 27.4638 25.4
      vertex 61.565 21.7387 25.4
      vertex 61.3899 28.4012 25.4
    endloop
  endfacet
  facet normal 0 0 1
    outer loop
      vertex 61.3899 28.4012 25.4
      vertex 61.565 21.7387 25.4
      vertex 62.115 27.8512 25.4
    endloop
  endfacet
  facet normal 0 0 1
    outer loop
      vertex 94.4757 26.2637 25.4
      vertex 91.9007 23.8138 25.4
      vertex 94.3882 23.8138 25.4
    endloop
  endfacet
  facet normal 0 0 1
    outer loop
      vertex 94.3757 22.9887 25.4
      vertex 90.8007 22.9887 25.4
      vertex 94.3757 20.8888 25.4
    endloop
  endfacet
  facet normal 0 0 1
    outer loop
      vertex 101.6 50.8 25.4
      vertex 101.2 30.1263 25.4
      vertex 101.6 0 25.4
    endloop
  endfacet
  facet normal 0 0 1
    outer loop
      vertex 101.6 50.8 25.4
      vertex 99.8878 30.1263 25.4
      vertex 101.2 30.1263 25.4
    endloop
  endfacet
  facet normal 0 0 1
    outer loop
      vertex 101.6 50.8 25.4
      vertex 99.1128 30.1263 25.4
      vertex 99.8878 30.1263 25.4
    endloop
  endfacet
  facet normal 0 0 1
    outer loop
      vertex 101.6 50.8 25.4
      vertex 97.8004 30.1263 25.4
      vertex 99.1128 30.1263 25.4
    endloop
  endfacet
  facet normal 0 0 1
    outer loop
      vertex 93.3382 29.6387 25.4
      vertex 97.8004 30.1263 25.4
      vertex 101.6 50.8 25.4
    endloop
  endfacet
  facet normal 0 0 1
    outer loop
      vertex 97.8004 30.1263 25.4
      vertex 95.3882 26.2637 25.4
      vertex 96.5007 23.8138 25.4
    endloop
  endfacet
  facet normal 0 0 1
    outer loop
      vertex 97.8004 30.1263 25.4
      vertex 94.2007 29.2638 25.4
      vertex 95.3882 26.2637 25.4
    endloop
  endfacet
  facet normal 0 0 1
    outer loop
      vertex 91.9007 23.8138 25.4
      vertex 94.4757 26.2637 25.4
      vertex 94.2007 29.2638 25.4
    endloop
  endfacet
  facet normal 0 0 1
    outer loop
      vertex 95.3882 26.2637 25.4
      vertex 94.2007 29.2638 25.4
      vertex 94.4757 26.2637 25.4
    endloop
  endfacet
  facet normal 0 0 1
    outer loop
      vertex 97.8004 30.1263 25.4
      vertex 93.3382 29.6387 25.4
      vertex 94.2007 29.2638 25.4
    endloop
  endfacet
  facet normal 0 0 1
    outer loop
      vertex 84.7014 27.4638 25.4
      vertex 93.3382 29.6387 25.4
      vertex 101.6 50.8 25.4
    endloop
  endfacet
  facet normal 0 0 1
    outer loop
      vertex 90.8007 23.7388 25.4
      vertex 85.0015 20.8888 25.4
      vertex 90.8007 22.9887 25.4
    endloop
  endfacet
  facet normal 0 0 1
    outer loop
      vertex 93.3382 29.6387 25.4
      vertex 84.7014 27.4638 25.4
      vertex 90.8007 23.7388 25.4
    endloop
  endfacet
  facet normal 0 0 1
    outer loop
      vertex 90.8007 23.7388 25.4
      vertex 84.7014 27.4638 25.4
      vertex 85.0015 20.8888 25.4
    endloop
  endfacet
  facet normal 0 0 1
    outer loop
      vertex 101.6 50.8 25.4
      vertex 83.5139 27.4638 25.4
      vertex 84.7014 27.4638 25.4
    endloop
  endfacet
  facet normal 0 0 1
    outer loop
      vertex 83.5139 27.4638 25.4
      vertex 80.4264 27.4638 25.4
      vertex 81.964 25.0137 25.4
    endloop
  endfacet
  facet normal 0 0 1
    outer loop
      vertex 101.6 50.8 25.4
      vertex 80.4264 27.4638 25.4
      vertex 83.5139 27.4638 25.4
    endloop
  endfacet
  facet normal -0 0 1
    outer loop
      vertex 71.9522 30.1263 25.4
      vertex 80.4264 27.4638 25.4
      vertex 101.6 50.8 25.4
    endloop
  endfacet
  facet normal 0 0 1
    outer loop
      vertex 71.7521 26.8763 25.4
      vertex 79.2014 27.4638 25.4
      vertex 71.9522 30.1263 25.4
    endloop
  endfacet
  facet normal 0 0 1
    outer loop
      vertex 80.4264 27.4638 25.4
      vertex 71.9522 30.1263 25.4
      vertex 79.2014 27.4638 25.4
    endloop
  endfacet
  facet normal 0 0 1
    outer loop
      vertex 101.6 50.8 25.4
      vertex 70.6396 30.1263 25.4
      vertex 71.9522 30.1263 25.4
    endloop
  endfacet
  facet normal 0 0 1
    outer loop
      vertex 101.6 50.8 25.4
      vertex 69.8646 30.1263 25.4
      vertex 70.6396 30.1263 25.4
    endloop
  endfacet
  facet normal 0 0 1
    outer loop
      vertex 101.6 50.8 25.4
      vertex 68.5521 30.1263 25.4
      vertex 69.8646 30.1263 25.4
    endloop
  endfacet
  facet normal 0 0 1
    outer loop
      vertex 66.3999 26.0741 25.4
      vertex 68.7521 26.8763 25.4
      vertex 66.6025 27.2263 25.4
    endloop
  endfacet
  facet normal 0 0 1
    outer loop
      vertex 68.7521 26.8763 25.4
      vertex 66.4267 28.1833 25.4
      vertex 66.6025 27.2263 25.4
    endloop
  endfacet
  facet normal 0 0 1
    outer loop
      vertex 68.5521 30.1263 25.4
      vertex 65.9181 28.9481 25.4
      vertex 66.4267 28.1833 25.4
    endloop
  endfacet
  facet normal 0 0 1
    outer loop
      vertex 64.015 29.6387 25.4
      vertex 68.5521 30.1263 25.4
      vertex 101.6 50.8 25.4
    endloop
  endfacet
  facet normal 0 0 1
    outer loop
      vertex 68.5521 30.1263 25.4
      vertex 65.1048 29.4551 25.4
      vertex 65.9181 28.9481 25.4
    endloop
  endfacet
  facet normal 0 0 1
    outer loop
      vertex 68.5521 30.1263 25.4
      vertex 64.015 29.6387 25.4
      vertex 65.1048 29.4551 25.4
    endloop
  endfacet
  facet normal 0 0 1
    outer loop
      vertex 101.6 50.8 25.4
      vertex 63.211 29.5614 25.4
      vertex 64.015 29.6387 25.4
    endloop
  endfacet
  facet normal -0 0 1
    outer loop
      vertex 42.7039 30.1263 25.4
      vertex 63.211 29.5614 25.4
      vertex 101.6 50.8 25.4
    endloop
  endfacet
  facet normal 0 0 1
    outer loop
      vertex 61.565 21.7387 25.4
      vertex 55.7532 20.8888 25.4
      vertex 61.565 20.8888 25.4
    endloop
  endfacet
  facet normal 0 0 1
    outer loop
      vertex 61.9266 28.9426 25.4
      vertex 55.4531 27.4638 25.4
      vertex 61.3899 28.4012 25.4
    endloop
  endfacet
  facet normal 0 0 1
    outer loop
      vertex 62.5243 29.3294 25.4
      vertex 55.4531 27.4638 25.4
      vertex 61.9266 28.9426 25.4
    endloop
  endfacet
  facet normal 0 0 1
    outer loop
      vertex 63.211 29.5614 25.4
      vertex 42.7039 30.1263 25.4
      vertex 62.5243 29.3294 25.4
    endloop
  endfacet
  facet normal 0 -0 1
    outer loop
      vertex 54.2657 27.4638 25.4
      vertex 62.5243 29.3294 25.4
      vertex 42.7039 30.1263 25.4
    endloop
  endfacet
  facet normal 0 0 1
    outer loop
      vertex 54.2657 27.4638 25.4
      vertex 51.1782 27.4638 25.4
      vertex 52.7157 25.0137 25.4
    endloop
  endfacet
  facet normal 0 0 1
    outer loop
      vertex 62.5243 29.3294 25.4
      vertex 54.2657 27.4638 25.4
      vertex 55.4531 27.4638 25.4
    endloop
  endfacet
  facet normal 0 0 1
    outer loop
      vertex 54.2657 27.4638 25.4
      vertex 42.7039 30.1263 25.4
      vertex 51.1782 27.4638 25.4
    endloop
  endfacet
  facet normal 0 0 1
    outer loop
      vertex 42.5038 26.8763 25.4
      vertex 49.9532 27.4638 25.4
      vertex 42.7039 30.1263 25.4
    endloop
  endfacet
  facet normal 0 0 1
    outer loop
      vertex 51.1782 27.4638 25.4
      vertex 42.7039 30.1263 25.4
      vertex 49.9532 27.4638 25.4
    endloop
  endfacet
  facet normal -0 0 1
    outer loop
      vertex 0 50.8 25.4
      vertex 42.7039 30.1263 25.4
      vertex 101.6 50.8 25.4
    endloop
  endfacet
  facet normal 0 0 1
    outer loop
      vertex 42.7039 30.1263 25.4
      vertex 0 50.8 25.4
      vertex 41.3913 30.1263 25.4
    endloop
  endfacet
  facet normal 0 0 1
    outer loop
      vertex 41.3913 30.1263 25.4
      vertex 0 50.8 25.4
      vertex 40.6164 30.1263 25.4
    endloop
  endfacet
  facet normal 0 0 1
    outer loop
      vertex 36.0668 21.7387 25.4
      vertex 39.5039 26.8763 25.4
      vertex 36.0668 29.4888 25.4
    endloop
  endfacet
  facet normal 0 0 1
    outer loop
      vertex 40.6164 30.1263 25.4
      vertex 0 50.8 25.4
      vertex 39.3039 30.1263 25.4
    endloop
  endfacet
  facet normal 0 -0 1
    outer loop
      vertex 35.1543 29.4888 25.4
      vertex 39.3039 30.1263 25.4
      vertex 0 50.8 25.4
    endloop
  endfacet
  facet normal 0 0 1
    outer loop
      vertex 35.1543 29.4888 25.4
      vertex 0 50.8 25.4
      vertex 32.6042 27.9138 25.4
    endloop
  endfacet
  facet normal 0 0 1
    outer loop
      vertex 39.3039 30.1263 25.4
      vertex 35.1543 29.4888 25.4
      vertex 36.0668 29.4888 25.4
    endloop
  endfacet
  facet normal -0 0 1
    outer loop
      vertex 101 26.8763 25.4
      vertex 101.6 0 25.4
      vertex 101.2 30.1263 25.4
    endloop
  endfacet
  facet normal 0 0 1
    outer loop
      vertex 96.5007 22.9887 25.4
      vertex 101 26.8763 25.4
      vertex 100.088 26.8763 25.4
    endloop
  endfacet
  facet normal 0 0 1
    outer loop
      vertex 98.9129 26.8763 25.4
      vertex 100.088 26.8763 25.4
      vertex 99.8878 30.1263 25.4
    endloop
  endfacet
  facet normal 0 0 1
    outer loop
      vertex 98.9129 26.8763 25.4
      vertex 99.8878 30.1263 25.4
      vertex 99.1128 30.1263 25.4
    endloop
  endfacet
  facet normal 0 0 1
    outer loop
      vertex 96.5007 23.8138 25.4
      vertex 100.088 26.8763 25.4
      vertex 98.9129 26.8763 25.4
    endloop
  endfacet
  facet normal 0 0 1
    outer loop
      vertex 96.5007 23.8138 25.4
      vertex 98.9129 26.8763 25.4
      vertex 98.0004 26.8763 25.4
    endloop
  endfacet
  facet normal 0 0 1
    outer loop
      vertex 96.5007 23.8138 25.4
      vertex 98.0004 26.8763 25.4
      vertex 97.8004 30.1263 25.4
    endloop
  endfacet
  facet normal 0 0 1
    outer loop
      vertex 100.088 26.8763 25.4
      vertex 96.5007 23.8138 25.4
      vertex 96.5007 22.9887 25.4
    endloop
  endfacet
  facet normal 0 0 1
    outer loop
      vertex 101 26.8763 25.4
      vertex 96.5007 22.9887 25.4
      vertex 95.3882 20.8888 25.4
    endloop
  endfacet
  facet normal 0 0 1
    outer loop
      vertex 95.3882 20.8888 25.4
      vertex 96.5007 22.9887 25.4
      vertex 95.3882 22.9887 25.4
    endloop
  endfacet
  facet normal 0 0 1
    outer loop
      vertex 101 26.8763 25.4
      vertex 95.3882 20.8888 25.4
      vertex 101.6 0 25.4
    endloop
  endfacet
  facet normal -0 0 1
    outer loop
      vertex 94.3757 20.8888 25.4
      vertex 101.6 0 25.4
      vertex 95.3882 20.8888 25.4
    endloop
  endfacet
  facet normal 0 0 1
    outer loop
      vertex 85.0015 20.8888 25.4
      vertex 94.3757 20.8888 25.4
      vertex 90.8007 22.9887 25.4
    endloop
  endfacet
  facet normal 0 0 1
    outer loop
      vertex 94.3757 20.8888 25.4
      vertex 85.0015 20.8888 25.4
      vertex 101.6 0 25.4
    endloop
  endfacet
  facet normal -0 0 1
    outer loop
      vertex 83.7264 20.8888 25.4
      vertex 101.6 0 25.4
      vertex 85.0015 20.8888 25.4
    endloop
  endfacet
  facet normal 0 0 1
    outer loop
      vertex 80.0889 20.8888 25.4
      vertex 83.7264 20.8888 25.4
      vertex 81.9139 23.7138 25.4
    endloop
  endfacet
  facet normal -0 0 1
    outer loop
      vertex 80.0889 20.8888 25.4
      vertex 101.6 0 25.4
      vertex 83.7264 20.8888 25.4
    endloop
  endfacet
  facet normal -0 0 1
    outer loop
      vertex 78.9014 20.8888 25.4
      vertex 101.6 0 25.4
      vertex 80.0889 20.8888 25.4
    endloop
  endfacet
  facet normal 0 0 1
    outer loop
      vertex 79.2014 27.4638 25.4
      vertex 71.7521 26.8763 25.4
      vertex 78.9014 20.8888 25.4
    endloop
  endfacet
  facet normal -0 0 1
    outer loop
      vertex 66.8024 21.7763 25.4
      vertex 78.9014 20.8888 25.4
      vertex 71.7521 26.8763 25.4
    endloop
  endfacet
  facet normal 0 0 1
    outer loop
      vertex 66.8024 21.7763 25.4
      vertex 71.7521 26.8763 25.4
      vertex 70.8396 26.8763 25.4
    endloop
  endfacet
  facet normal -0 0 1
    outer loop
      vertex 69.8646 30.1263 25.4
      vertex 70.8396 26.8763 25.4
      vertex 70.6396 30.1263 25.4
    endloop
  endfacet
  facet normal 0 0 1
    outer loop
      vertex 69.6646 26.8763 25.4
      vertex 70.8396 26.8763 25.4
      vertex 69.8646 30.1263 25.4
    endloop
  endfacet
  facet normal 0 0 1
    outer loop
      vertex 66.8024 21.7763 25.4
      vertex 70.8396 26.8763 25.4
      vertex 69.6646 26.8763 25.4
    endloop
  endfacet
  facet normal 0 0 1
    outer loop
      vertex 66.8024 21.7763 25.4
      vertex 69.6646 26.8763 25.4
      vertex 68.7521 26.8763 25.4
    endloop
  endfacet
  facet normal -0 0 1
    outer loop
      vertex 66.4267 28.1833 25.4
      vertex 68.7521 26.8763 25.4
      vertex 68.5521 30.1263 25.4
    endloop
  endfacet
  facet normal 0 0 1
    outer loop
      vertex 78.9014 20.8888 25.4
      vertex 66.8024 21.7763 25.4
      vertex 66.6775 20.8888 25.4
    endloop
  endfacet
  facet normal 0 0 1
    outer loop
      vertex 78.9014 20.8888 25.4
      vertex 66.6775 20.8888 25.4
      vertex 101.6 0 25.4
    endloop
  endfacet
  facet normal -0 0 1
    outer loop
      vertex 61.565 20.8888 25.4
      vertex 101.6 0 25.4
      vertex 66.6775 20.8888 25.4
    endloop
  endfacet
  facet normal 0 -0 1
    outer loop
      vertex 55.7532 20.8888 25.4
      vertex 61.565 21.7387 25.4
      vertex 55.4531 27.4638 25.4
    endloop
  endfacet
  facet normal -0 0 1
    outer loop
      vertex 55.7532 20.8888 25.4
      vertex 101.6 0 25.4
      vertex 61.565 20.8888 25.4
    endloop
  endfacet
  facet normal -0 0 1
    outer loop
      vertex 54.4782 20.8888 25.4
      vertex 101.6 0 25.4
      vertex 55.7532 20.8888 25.4
    endloop
  endfacet
  facet normal 0 0 1
    outer loop
      vertex 50.8406 20.8888 25.4
      vertex 54.4782 20.8888 25.4
      vertex 52.6657 23.7138 25.4
    endloop
  endfacet
  facet normal -0 0 1
    outer loop
      vertex 50.8406 20.8888 25.4
      vertex 101.6 0 25.4
      vertex 54.4782 20.8888 25.4
    endloop
  endfacet
  facet normal -0 0 1
    outer loop
      vertex 49.6532 20.8888 25.4
      vertex 101.6 0 25.4
      vertex 50.8406 20.8888 25.4
    endloop
  endfacet
  facet normal 0 0 1
    outer loop
      vertex 49.9532 27.4638 25.4
      vertex 42.5038 26.8763 25.4
      vertex 49.6532 20.8888 25.4
    endloop
  endfacet
  facet normal 0 0 1
    outer loop
      vertex 37.8668 21.7387 25.4
      vertex 42.5038 26.8763 25.4
      vertex 41.5913 26.8763 25.4
    endloop
  endfacet
  facet normal -0 0 1
    outer loop
      vertex 40.6164 30.1263 25.4
      vertex 41.5913 26.8763 25.4
      vertex 41.3913 30.1263 25.4
    endloop
  endfacet
  facet normal 0 0 1
    outer loop
      vertex 40.4164 26.8763 25.4
      vertex 41.5913 26.8763 25.4
      vertex 40.6164 30.1263 25.4
    endloop
  endfacet
  facet normal 0 0 1
    outer loop
      vertex 37.8668 21.7387 25.4
      vertex 41.5913 26.8763 25.4
      vertex 40.4164 26.8763 25.4
    endloop
  endfacet
  facet normal 0 0 1
    outer loop
      vertex 37.8668 21.7387 25.4
      vertex 40.4164 26.8763 25.4
      vertex 39.5039 26.8763 25.4
    endloop
  endfacet
  facet normal -0 0 1
    outer loop
      vertex 36.0668 29.4888 25.4
      vertex 39.5039 26.8763 25.4
      vertex 39.3039 30.1263 25.4
    endloop
  endfacet
  facet normal 0 0 1
    outer loop
      vertex 37.8668 20.8888 25.4
      vertex 42.5038 26.8763 25.4
      vertex 37.8668 21.7387 25.4
    endloop
  endfacet
  facet normal 0 0 1
    outer loop
      vertex 42.5038 26.8763 25.4
      vertex 37.8668 20.8888 25.4
      vertex 49.6532 20.8888 25.4
    endloop
  endfacet
  facet normal 0 0 1
    outer loop
      vertex 0 0 25.4
      vertex 49.6532 20.8888 25.4
      vertex 37.8668 20.8888 25.4
    endloop
  endfacet
  facet normal 0 0 1
    outer loop
      vertex 0 0 25.4
      vertex 37.8668 20.8888 25.4
      vertex 32.9043 20.8888 25.4
    endloop
  endfacet
  facet normal 0 0 1
    outer loop
      vertex 0 0 25.4
      vertex 32.6042 27.9138 25.4
      vertex 0 50.8 25.4
    endloop
  endfacet
  facet normal 0 0 1
    outer loop
      vertex 49.6532 20.8888 25.4
      vertex 0 0 25.4
      vertex 101.6 0 25.4
    endloop
  endfacet
  facet normal 0 0 1
    outer loop
      vertex 32.9043 21.7387 25.4
      vertex 0 0 25.4
      vertex 32.9043 20.8888 25.4
    endloop
  endfacet
  facet normal 0 0 1
    outer loop
      vertex 96.5007 23.8138 25.4
      vertex 95.3882 26.2637 25.4
      vertex 95.3882 23.8138 25.4
    endloop
  endfacet
  facet normal 0 0 1
    outer loop
      vertex 85.0015 20.8888 25.4
      vertex 84.7014 27.4638 25.4
      vertex 82.5764 24.4138 25.4
    endloop
  endfacet
  facet normal 0 0 1
    outer loop
      vertex 81.3389 24.3637 25.4
      vertex 79.2014 27.4638 25.4
      vertex 78.9014 20.8888 25.4
    endloop
  endfacet
  facet normal 0 0 1
    outer loop
      vertex 65.7415 24.881 25.4
      vertex 68.7521 26.8763 25.4
      vertex 66.3999 26.0741 25.4
    endloop
  endfacet
  facet normal 0 0 1
    outer loop
      vertex 68.7521 26.8763 25.4
      vertex 65.7415 24.881 25.4
      vertex 66.8024 21.7763 25.4
    endloop
  endfacet
  facet normal -0 0 1
    outer loop
      vertex 64.5511 23.4979 25.4
      vertex 66.8024 21.7763 25.4
      vertex 65.7415 24.881 25.4
    endloop
  endfacet
  facet normal 0 0 1
    outer loop
      vertex 66.8024 21.7763 25.4
      vertex 64.5511 23.4979 25.4
      vertex 62.7524 21.7763 25.4
    endloop
  endfacet
  facet normal 0 0 1
    outer loop
      vertex 55.7532 20.8888 25.4
      vertex 55.4531 27.4638 25.4
      vertex 53.3282 24.4138 25.4
    endloop
  endfacet
  facet normal 0 0 1
    outer loop
      vertex 52.0907 24.3637 25.4
      vertex 49.9532 27.4638 25.4
      vertex 49.6532 20.8888 25.4
    endloop
  endfacet
  facet normal 0 0 1
    outer loop
      vertex 39.5039 26.8763 25.4
      vertex 36.0668 21.7387 25.4
      vertex 37.8668 21.7387 25.4
    endloop
  endfacet
  facet normal 0 0 -1
    outer loop
      vertex 0 0 0
      vertex 101.6 50.8 0
      vertex 101.6 0 0
    endloop
  endfacet
  facet normal -0 0 -1
    outer loop
      vertex 101.6 50.8 0
      vertex 0 0 0
      vertex 0 50.8 0
    endloop
  endfacet
  facet normal -1 0 0
    outer loop
      vertex 0 0 0
      vertex 0 50.8 25.4
      vertex 0 50.8 0
    endloop
  endfacet
  facet normal -1 -0 0
    outer loop
      vertex 0 50.8 25.4
      vertex 0 0 0
      vertex 0 0 25.4
    endloop
  endfacet
  facet normal 0 1 -0
    outer loop
      vertex 101.6 50.8 0
      vertex 0 50.8 25.4
      vertex 101.6 50.8 25.4
    endloop
  endfacet
  facet normal 0 1 0
    outer loop
      vertex 0 50.8 25.4
      vertex 101.6 50.8 0
      vertex 0 50.8 0
    endloop
  endfacet
  facet normal 0 -1 0
    outer loop
      vertex 0 0 0
      vertex 101.6 0 25.4
      vertex 0 0 25.4
    endloop
  endfacet
  facet normal 0 -1 -0
    outer loop
      vertex 101.6 0 25.4
      vertex 0 0 0
      vertex 101.6 0 0
    endloop
  endfacet
  facet normal 0 0 1
    outer loop
      vertex 40.6164 30.1263 24.4
      vertex 39.5039 26.8763 24.4
      vertex 40.4164 26.8763 24.4
    endloop
  endfacet
  facet normal 0 -0 1
    outer loop
      vertex 39.5039 26.8763 24.4
      vertex 40.6164 30.1263 24.4
      vertex 39.3039 30.1263 24.4
    endloop
  endfacet
  facet normal 0 0 1
    outer loop
      vertex 42.7039 30.1263 24.4
      vertex 41.5913 26.8763 24.4
      vertex 42.5038 26.8763 24.4
    endloop
  endfacet
  facet normal 0 -0 1
    outer loop
      vertex 41.5913 26.8763 24.4
      vertex 42.7039 30.1263 24.4
      vertex 41.3913 30.1263 24.4
    endloop
  endfacet
  facet normal 0 0 1
    outer loop
      vertex 69.8646 30.1263 24.4
      vertex 68.7521 26.8763 24.4
      vertex 69.6646 26.8763 24.4
    endloop
  endfacet
  facet normal 0 -0 1
    outer loop
      vertex 68.7521 26.8763 24.4
      vertex 69.8646 30.1263 24.4
      vertex 68.5521 30.1263 24.4
    endloop
  endfacet
  facet normal 0 0 1
    outer loop
      vertex 71.9522 30.1263 24.4
      vertex 70.8396 26.8763 24.4
      vertex 71.7521 26.8763 24.4
    endloop
  endfacet
  facet normal 0 -0 1
    outer loop
      vertex 70.8396 26.8763 24.4
      vertex 71.9522 30.1263 24.4
      vertex 70.6396 30.1263 24.4
    endloop
  endfacet
  facet normal 0 0 1
    outer loop
      vertex 93.3382 29.6387 24.4
      vertex 91.9007 23.8138 24.4
      vertex 94.2007 29.2638 24.4
    endloop
  endfacet
  facet normal 0 -0 1
    outer loop
      vertex 91.9007 23.8138 24.4
      vertex 93.3382 29.6387 24.4
      vertex 90.8007 23.7388 24.4
    endloop
  endfacet
  facet normal -0 0 1
    outer loop
      vertex 91.9007 23.8138 24.4
      vertex 94.3757 22.9887 24.4
      vertex 94.3882 23.8138 24.4
    endloop
  endfacet
  facet normal 0 0 1
    outer loop
      vertex 90.8007 22.9887 24.4
      vertex 91.9007 23.8138 24.4
      vertex 90.8007 23.7388 24.4
    endloop
  endfacet
  facet normal 0 0 1
    outer loop
      vertex 91.9007 23.8138 24.4
      vertex 90.8007 22.9887 24.4
      vertex 94.3757 22.9887 24.4
    endloop
  endfacet
  facet normal -0 0 1
    outer loop
      vertex 94.4757 26.2637 24.4
      vertex 95.3882 23.8138 24.4
      vertex 95.3882 26.2637 24.4
    endloop
  endfacet
  facet normal 0 0 1
    outer loop
      vertex 95.3882 23.8138 24.4
      vertex 94.3882 23.8138 24.4
      vertex 95.3882 22.9887 24.4
    endloop
  endfacet
  facet normal 0 0 1
    outer loop
      vertex 95.3882 23.8138 24.4
      vertex 94.4757 26.2637 24.4
      vertex 94.3882 23.8138 24.4
    endloop
  endfacet
  facet normal 0 0 1
    outer loop
      vertex 94.3757 22.9887 24.4
      vertex 95.3882 22.9887 24.4
      vertex 94.3882 23.8138 24.4
    endloop
  endfacet
  facet normal 0 0 1
    outer loop
      vertex 95.3882 22.9887 24.4
      vertex 94.3757 22.9887 24.4
      vertex 95.3882 20.8888 24.4
    endloop
  endfacet
  facet normal 0 0 1
    outer loop
      vertex 95.3882 20.8888 24.4
      vertex 94.3757 22.9887 24.4
      vertex 94.3757 20.8888 24.4
    endloop
  endfacet
  facet normal -0 0 1
    outer loop
      vertex 95.3882 23.8138 24.4
      vertex 96.5007 22.9887 24.4
      vertex 96.5007 23.8138 24.4
    endloop
  endfacet
  facet normal 0 0 1
    outer loop
      vertex 96.5007 22.9887 24.4
      vertex 95.3882 23.8138 24.4
      vertex 95.3882 22.9887 24.4
    endloop
  endfacet
  facet normal 0 0 1
    outer loop
      vertex 99.1128 30.1263 24.4
      vertex 98.0004 26.8763 24.4
      vertex 98.9129 26.8763 24.4
    endloop
  endfacet
  facet normal 0 -0 1
    outer loop
      vertex 98.0004 26.8763 24.4
      vertex 99.1128 30.1263 24.4
      vertex 97.8004 30.1263 24.4
    endloop
  endfacet
  facet normal 0 0 1
    outer loop
      vertex 101.2 30.1263 24.4
      vertex 100.088 26.8763 24.4
      vertex 101 26.8763 24.4
    endloop
  endfacet
  facet normal 0 -0 1
    outer loop
      vertex 100.088 26.8763 24.4
      vertex 101.2 30.1263 24.4
      vertex 99.8878 30.1263 24.4
    endloop
  endfacet
  facet normal 0 0 1
    outer loop
      vertex 65.515 27.2013 24.4
      vertex 66.6025 27.2263 24.4
      vertex 66.4267 28.1833 24.4
    endloop
  endfacet
  facet normal 0 0 1
    outer loop
      vertex 65.4101 27.8514 24.4
      vertex 66.4267 28.1833 24.4
      vertex 65.9181 28.9481 24.4
    endloop
  endfacet
  facet normal 0 0 1
    outer loop
      vertex 66.6025 27.2263 24.4
      vertex 65.515 27.2013 24.4
      vertex 66.3999 26.0741 24.4
    endloop
  endfacet
  facet normal -0 0 1
    outer loop
      vertex 65.3548 26.1895 24.4
      vertex 66.3999 26.0741 24.4
      vertex 65.515 27.2013 24.4
    endloop
  endfacet
  facet normal 0 0 1
    outer loop
      vertex 66.4267 28.1833 24.4
      vertex 65.4101 27.8514 24.4
      vertex 65.515 27.2013 24.4
    endloop
  endfacet
  facet normal 0 0 1
    outer loop
      vertex 65.9181 28.9481 24.4
      vertex 65.1072 28.3434 24.4
      vertex 65.4101 27.8514 24.4
    endloop
  endfacet
  facet normal 0 0 1
    outer loop
      vertex 65.1048 29.4551 24.4
      vertex 65.1072 28.3434 24.4
      vertex 65.9181 28.9481 24.4
    endloop
  endfacet
  facet normal 0 0 1
    outer loop
      vertex 65.1048 29.4551 24.4
      vertex 64.6237 28.6549 24.4
      vertex 65.1072 28.3434 24.4
    endloop
  endfacet
  facet normal 0 0 1
    outer loop
      vertex 64.015 29.6387 24.4
      vertex 64.6237 28.6549 24.4
      vertex 65.1048 29.4551 24.4
    endloop
  endfacet
  facet normal 0 0 1
    outer loop
      vertex 64.015 29.6387 24.4
      vertex 63.9774 28.7637 24.4
      vertex 64.6237 28.6549 24.4
    endloop
  endfacet
  facet normal 0 0 1
    outer loop
      vertex 64.015 29.6387 24.4
      vertex 63.4052 28.7108 24.4
      vertex 63.9774 28.7637 24.4
    endloop
  endfacet
  facet normal -0 0 1
    outer loop
      vertex 63.211 29.5614 24.4
      vertex 63.4052 28.7108 24.4
      vertex 64.015 29.6387 24.4
    endloop
  endfacet
  facet normal 0 0 1
    outer loop
      vertex 63.211 29.5614 24.4
      vertex 62.9337 28.5466 24.4
      vertex 63.4052 28.7108 24.4
    endloop
  endfacet
  facet normal -0 0 1
    outer loop
      vertex 62.5243 29.3294 24.4
      vertex 62.9337 28.5466 24.4
      vertex 63.211 29.5614 24.4
    endloop
  endfacet
  facet normal 0 0 1
    outer loop
      vertex 62.5243 29.3294 24.4
      vertex 62.5185 28.2628 24.4
      vertex 62.9337 28.5466 24.4
    endloop
  endfacet
  facet normal -0 0 1
    outer loop
      vertex 61.9266 28.9426 24.4
      vertex 62.5185 28.2628 24.4
      vertex 62.5243 29.3294 24.4
    endloop
  endfacet
  facet normal 0 0 1
    outer loop
      vertex 62.5185 28.2628 24.4
      vertex 61.9266 28.9426 24.4
      vertex 62.115 27.8512 24.4
    endloop
  endfacet
  facet normal 0 0 1
    outer loop
      vertex 62.115 27.8512 24.4
      vertex 61.9266 28.9426 24.4
      vertex 61.3899 28.4012 24.4
    endloop
  endfacet
  facet normal 0 0 1
    outer loop
      vertex 66.3999 26.0741 24.4
      vertex 65.3548 26.1895 24.4
      vertex 65.7415 24.881 24.4
    endloop
  endfacet
  facet normal -0 0 1
    outer loop
      vertex 64.7587 25.1075 24.4
      vertex 65.7415 24.881 24.4
      vertex 65.3548 26.1895 24.4
    endloop
  endfacet
  facet normal 0 0 1
    outer loop
      vertex 64.7587 25.1075 24.4
      vertex 64.5511 23.4979 24.4
      vertex 65.7415 24.881 24.4
    endloop
  endfacet
  facet normal -0 0 1
    outer loop
      vertex 63.5533 23.7067 24.4
      vertex 64.5511 23.4979 24.4
      vertex 64.7587 25.1075 24.4
    endloop
  endfacet
  facet normal 0 0 1
    outer loop
      vertex 63.5533 23.7067 24.4
      vertex 62.7524 21.7763 24.4
      vertex 64.5511 23.4979 24.4
    endloop
  endfacet
  facet normal 0 -0 1
    outer loop
      vertex 62.7524 21.7763 24.4
      vertex 63.5533 23.7067 24.4
      vertex 61.565 21.7387 24.4
    endloop
  endfacet
  facet normal -0 0 1
    outer loop
      vertex 62.7524 21.7763 24.4
      vertex 66.6775 20.8888 24.4
      vertex 66.8024 21.7763 24.4
    endloop
  endfacet
  facet normal 0 0 1
    outer loop
      vertex 61.565 20.8888 24.4
      vertex 62.7524 21.7763 24.4
      vertex 61.565 21.7387 24.4
    endloop
  endfacet
  facet normal 0 0 1
    outer loop
      vertex 62.7524 21.7763 24.4
      vertex 61.565 20.8888 24.4
      vertex 66.6775 20.8888 24.4
    endloop
  endfacet
  facet normal -0 0 1
    outer loop
      vertex 83.5139 27.4638 24.4
      vertex 82.5764 24.4138 24.4
      vertex 84.7014 27.4638 24.4
    endloop
  endfacet
  facet normal 0 -0 1
    outer loop
      vertex 82.5764 24.4138 24.4
      vertex 83.5139 27.4638 24.4
      vertex 81.964 25.0137 24.4
    endloop
  endfacet
  facet normal 0 0 1
    outer loop
      vertex 82.5764 24.4138 24.4
      vertex 83.7264 20.8888 24.4
      vertex 85.0015 20.8888 24.4
    endloop
  endfacet
  facet normal 0 0 1
    outer loop
      vertex 81.3389 24.3637 24.4
      vertex 82.5764 24.4138 24.4
      vertex 81.964 25.0137 24.4
    endloop
  endfacet
  facet normal 0 0 1
    outer loop
      vertex 82.5764 24.4138 24.4
      vertex 81.9139 23.7138 24.4
      vertex 83.7264 20.8888 24.4
    endloop
  endfacet
  facet normal 0 0 1
    outer loop
      vertex 82.5764 24.4138 24.4
      vertex 81.3389 24.3637 24.4
      vertex 81.9139 23.7138 24.4
    endloop
  endfacet
  facet normal 0 0 1
    outer loop
      vertex 80.4264 27.4638 24.4
      vertex 81.3389 24.3637 24.4
      vertex 81.964 25.0137 24.4
    endloop
  endfacet
  facet normal 0 0 1
    outer loop
      vertex 81.3389 24.3637 24.4
      vertex 80.4264 27.4638 24.4
      vertex 79.2014 27.4638 24.4
    endloop
  endfacet
  facet normal 0 0 1
    outer loop
      vertex 81.3389 24.3637 24.4
      vertex 80.0889 20.8888 24.4
      vertex 81.9139 23.7138 24.4
    endloop
  endfacet
  facet normal 0 -0 1
    outer loop
      vertex 80.0889 20.8888 24.4
      vertex 81.3389 24.3637 24.4
      vertex 78.9014 20.8888 24.4
    endloop
  endfacet
  facet normal 0 0 1
    outer loop
      vertex 35.0292 28.3638 24.4
      vertex 36.0668 29.4888 24.4
      vertex 35.1543 29.4888 24.4
    endloop
  endfacet
  facet normal -0 0 1
    outer loop
      vertex 36.0668 21.7387 24.4
      vertex 37.8668 20.8888 24.4
      vertex 37.8668 21.7387 24.4
    endloop
  endfacet
  facet normal 0 0 1
    outer loop
      vertex 36.0668 29.4888 24.4
      vertex 35.0292 28.3638 24.4
      vertex 36.0668 21.7387 24.4
    endloop
  endfacet
  facet normal 0 0 1
    outer loop
      vertex 35.0292 21.7387 24.4
      vertex 36.0668 21.7387 24.4
      vertex 35.0292 28.3638 24.4
    endloop
  endfacet
  facet normal -0 0 1
    outer loop
      vertex 35.0292 21.7387 24.4
      vertex 37.8668 20.8888 24.4
      vertex 36.0668 21.7387 24.4
    endloop
  endfacet
  facet normal 0 0 1
    outer loop
      vertex 32.9043 20.8888 24.4
      vertex 35.0292 21.7387 24.4
      vertex 32.9043 21.7387 24.4
    endloop
  endfacet
  facet normal 0 0 1
    outer loop
      vertex 35.0292 21.7387 24.4
      vertex 32.9043 20.8888 24.4
      vertex 37.8668 20.8888 24.4
    endloop
  endfacet
  facet normal 0 0 1
    outer loop
      vertex 32.6042 27.9138 24.4
      vertex 35.0292 28.3638 24.4
      vertex 35.1543 29.4888 24.4
    endloop
  endfacet
  facet normal 0 0 1
    outer loop
      vertex 35.0292 28.3638 24.4
      vertex 32.6042 27.9138 24.4
      vertex 33.0542 27.1762 24.4
    endloop
  endfacet
  facet normal -0 0 1
    outer loop
      vertex 54.2657 27.4638 24.4
      vertex 53.3282 24.4138 24.4
      vertex 55.4531 27.4638 24.4
    endloop
  endfacet
  facet normal 0 -0 1
    outer loop
      vertex 53.3282 24.4138 24.4
      vertex 54.2657 27.4638 24.4
      vertex 52.7157 25.0137 24.4
    endloop
  endfacet
  facet normal 0 0 1
    outer loop
      vertex 53.3282 24.4138 24.4
      vertex 54.4782 20.8888 24.4
      vertex 55.7532 20.8888 24.4
    endloop
  endfacet
  facet normal 0 0 1
    outer loop
      vertex 52.0907 24.3637 24.4
      vertex 53.3282 24.4138 24.4
      vertex 52.7157 25.0137 24.4
    endloop
  endfacet
  facet normal 0 0 1
    outer loop
      vertex 53.3282 24.4138 24.4
      vertex 52.6657 23.7138 24.4
      vertex 54.4782 20.8888 24.4
    endloop
  endfacet
  facet normal 0 0 1
    outer loop
      vertex 53.3282 24.4138 24.4
      vertex 52.0907 24.3637 24.4
      vertex 52.6657 23.7138 24.4
    endloop
  endfacet
  facet normal 0 0 1
    outer loop
      vertex 51.1782 27.4638 24.4
      vertex 52.0907 24.3637 24.4
      vertex 52.7157 25.0137 24.4
    endloop
  endfacet
  facet normal 0 0 1
    outer loop
      vertex 52.0907 24.3637 24.4
      vertex 51.1782 27.4638 24.4
      vertex 49.9532 27.4638 24.4
    endloop
  endfacet
  facet normal 0 0 1
    outer loop
      vertex 52.0907 24.3637 24.4
      vertex 50.8406 20.8888 24.4
      vertex 52.6657 23.7138 24.4
    endloop
  endfacet
  facet normal 0 -0 1
    outer loop
      vertex 50.8406 20.8888 24.4
      vertex 52.0907 24.3637 24.4
      vertex 49.6532 20.8888 24.4
    endloop
  endfacet
  facet normal 0 -1 0
    outer loop
      vertex 39.3039 30.1263 24.4
      vertex 40.6164 30.1263 25.4
      vertex 39.3039 30.1263 25.4
    endloop
  endfacet
  facet normal 0 -1 -0
    outer loop
      vertex 40.6164 30.1263 25.4
      vertex 39.3039 30.1263 24.4
      vertex 40.6164 30.1263 24.4
    endloop
  endfacet
  facet normal 0.998112 0.0614223 0
    outer loop
      vertex 39.5039 26.8763 25.4
      vertex 39.3039 30.1263 24.4
      vertex 39.3039 30.1263 25.4
    endloop
  endfacet
  facet normal 0.998112 0.0614223 0
    outer loop
      vertex 39.3039 30.1263 24.4
      vertex 39.5039 26.8763 25.4
      vertex 39.5039 26.8763 24.4
    endloop
  endfacet
  facet normal 0 1 -0
    outer loop
      vertex 40.4164 26.8763 24.4
      vertex 39.5039 26.8763 25.4
      vertex 40.4164 26.8763 25.4
    endloop
  endfacet
  facet normal 0 1 0
    outer loop
      vertex 39.5039 26.8763 25.4
      vertex 40.4164 26.8763 24.4
      vertex 39.5039 26.8763 24.4
    endloop
  endfacet
  facet normal -0.998112 0.0614223 0
    outer loop
      vertex 40.4164 26.8763 24.4
      vertex 40.6164 30.1263 25.4
      vertex 40.6164 30.1263 24.4
    endloop
  endfacet
  facet normal -0.998112 0.0614223 0
    outer loop
      vertex 40.6164 30.1263 25.4
      vertex 40.4164 26.8763 24.4
      vertex 40.4164 26.8763 25.4
    endloop
  endfacet
  facet normal 0 -1 0
    outer loop
      vertex 41.3913 30.1263 24.4
      vertex 42.7039 30.1263 25.4
      vertex 41.3913 30.1263 25.4
    endloop
  endfacet
  facet normal 0 -1 -0
    outer loop
      vertex 42.7039 30.1263 25.4
      vertex 41.3913 30.1263 24.4
      vertex 42.7039 30.1263 24.4
    endloop
  endfacet
  facet normal 0.998112 0.0614223 0
    outer loop
      vertex 41.5913 26.8763 25.4
      vertex 41.3913 30.1263 24.4
      vertex 41.3913 30.1263 25.4
    endloop
  endfacet
  facet normal 0.998112 0.0614223 0
    outer loop
      vertex 41.3913 30.1263 24.4
      vertex 41.5913 26.8763 25.4
      vertex 41.5913 26.8763 24.4
    endloop
  endfacet
  facet normal 0 1 -0
    outer loop
      vertex 42.5038 26.8763 24.4
      vertex 41.5913 26.8763 25.4
      vertex 42.5038 26.8763 25.4
    endloop
  endfacet
  facet normal 0 1 0
    outer loop
      vertex 41.5913 26.8763 25.4
      vertex 42.5038 26.8763 24.4
      vertex 41.5913 26.8763 24.4
    endloop
  endfacet
  facet normal -0.99811 0.0614529 0
    outer loop
      vertex 42.5038 26.8763 24.4
      vertex 42.7039 30.1263 25.4
      vertex 42.7039 30.1263 24.4
    endloop
  endfacet
  facet normal -0.99811 0.0614529 0
    outer loop
      vertex 42.7039 30.1263 25.4
      vertex 42.5038 26.8763 24.4
      vertex 42.5038 26.8763 25.4
    endloop
  endfacet
  facet normal 0 -1 0
    outer loop
      vertex 68.5521 30.1263 24.4
      vertex 69.8646 30.1263 25.4
      vertex 68.5521 30.1263 25.4
    endloop
  endfacet
  facet normal 0 -1 -0
    outer loop
      vertex 69.8646 30.1263 25.4
      vertex 68.5521 30.1263 24.4
      vertex 69.8646 30.1263 24.4
    endloop
  endfacet
  facet normal 0.998112 0.0614223 0
    outer loop
      vertex 68.7521 26.8763 25.4
      vertex 68.5521 30.1263 24.4
      vertex 68.5521 30.1263 25.4
    endloop
  endfacet
  facet normal 0.998112 0.0614223 0
    outer loop
      vertex 68.5521 30.1263 24.4
      vertex 68.7521 26.8763 25.4
      vertex 68.7521 26.8763 24.4
    endloop
  endfacet
  facet normal 0 1 -0
    outer loop
      vertex 69.6646 26.8763 24.4
      vertex 68.7521 26.8763 25.4
      vertex 69.6646 26.8763 25.4
    endloop
  endfacet
  facet normal 0 1 0
    outer loop
      vertex 68.7521 26.8763 25.4
      vertex 69.6646 26.8763 24.4
      vertex 68.7521 26.8763 24.4
    endloop
  endfacet
  facet normal -0.998112 0.0614223 0
    outer loop
      vertex 69.6646 26.8763 24.4
      vertex 69.8646 30.1263 25.4
      vertex 69.8646 30.1263 24.4
    endloop
  endfacet
  facet normal -0.998112 0.0614223 0
    outer loop
      vertex 69.8646 30.1263 25.4
      vertex 69.6646 26.8763 24.4
      vertex 69.6646 26.8763 25.4
    endloop
  endfacet
  facet normal 0 -1 0
    outer loop
      vertex 70.6396 30.1263 24.4
      vertex 71.9522 30.1263 25.4
      vertex 70.6396 30.1263 25.4
    endloop
  endfacet
  facet normal 0 -1 -0
    outer loop
      vertex 71.9522 30.1263 25.4
      vertex 70.6396 30.1263 24.4
      vertex 71.9522 30.1263 24.4
    endloop
  endfacet
  facet normal 0.998112 0.0614223 0
    outer loop
      vertex 70.8396 26.8763 25.4
      vertex 70.6396 30.1263 24.4
      vertex 70.6396 30.1263 25.4
    endloop
  endfacet
  facet normal 0.998112 0.0614223 0
    outer loop
      vertex 70.6396 30.1263 24.4
      vertex 70.8396 26.8763 25.4
      vertex 70.8396 26.8763 24.4
    endloop
  endfacet
  facet normal 0 1 -0
    outer loop
      vertex 71.7521 26.8763 24.4
      vertex 70.8396 26.8763 25.4
      vertex 71.7521 26.8763 25.4
    endloop
  endfacet
  facet normal 0 1 0
    outer loop
      vertex 70.8396 26.8763 25.4
      vertex 71.7521 26.8763 24.4
      vertex 70.8396 26.8763 24.4
    endloop
  endfacet
  facet normal -0.99811 0.0614529 0
    outer loop
      vertex 71.7521 26.8763 24.4
      vertex 71.9522 30.1263 25.4
      vertex 71.9522 30.1263 24.4
    endloop
  endfacet
  facet normal -0.99811 0.0614529 0
    outer loop
      vertex 71.9522 30.1263 25.4
      vertex 71.7521 26.8763 24.4
      vertex 71.7521 26.8763 25.4
    endloop
  endfacet
  facet normal 0 -1 0
    outer loop
      vertex 97.8004 30.1263 24.4
      vertex 99.1128 30.1263 25.4
      vertex 97.8004 30.1263 25.4
    endloop
  endfacet
  facet normal 0 -1 -0
    outer loop
      vertex 99.1128 30.1263 25.4
      vertex 97.8004 30.1263 24.4
      vertex 99.1128 30.1263 24.4
    endloop
  endfacet
  facet normal 0.998112 0.0614223 0
    outer loop
      vertex 98.0004 26.8763 25.4
      vertex 97.8004 30.1263 24.4
      vertex 97.8004 30.1263 25.4
    endloop
  endfacet
  facet normal 0.998112 0.0614223 0
    outer loop
      vertex 97.8004 30.1263 24.4
      vertex 98.0004 26.8763 25.4
      vertex 98.0004 26.8763 24.4
    endloop
  endfacet
  facet normal 0 1 -0
    outer loop
      vertex 98.9129 26.8763 24.4
      vertex 98.0004 26.8763 25.4
      vertex 98.9129 26.8763 25.4
    endloop
  endfacet
  facet normal 0 1 0
    outer loop
      vertex 98.0004 26.8763 25.4
      vertex 98.9129 26.8763 24.4
      vertex 98.0004 26.8763 24.4
    endloop
  endfacet
  facet normal -0.998114 0.0613917 0
    outer loop
      vertex 98.9129 26.8763 24.4
      vertex 99.1128 30.1263 25.4
      vertex 99.1128 30.1263 24.4
    endloop
  endfacet
  facet normal -0.998114 0.0613917 0
    outer loop
      vertex 99.1128 30.1263 25.4
      vertex 98.9129 26.8763 24.4
      vertex 98.9129 26.8763 25.4
    endloop
  endfacet
  facet normal 0 -1 0
    outer loop
      vertex 99.8878 30.1263 24.4
      vertex 101.2 30.1263 25.4
      vertex 99.8878 30.1263 25.4
    endloop
  endfacet
  facet normal 0 -1 -0
    outer loop
      vertex 101.2 30.1263 25.4
      vertex 99.8878 30.1263 24.4
      vertex 101.2 30.1263 24.4
    endloop
  endfacet
  facet normal 0.998108 0.0614835 0
    outer loop
      vertex 100.088 26.8763 25.4
      vertex 99.8878 30.1263 24.4
      vertex 99.8878 30.1263 25.4
    endloop
  endfacet
  facet normal 0.998108 0.0614835 0
    outer loop
      vertex 99.8878 30.1263 24.4
      vertex 100.088 26.8763 25.4
      vertex 100.088 26.8763 24.4
    endloop
  endfacet
  facet normal 0 1 -0
    outer loop
      vertex 101 26.8763 24.4
      vertex 100.088 26.8763 25.4
      vertex 101 26.8763 25.4
    endloop
  endfacet
  facet normal 0 1 0
    outer loop
      vertex 100.088 26.8763 25.4
      vertex 101 26.8763 24.4
      vertex 100.088 26.8763 24.4
    endloop
  endfacet
  facet normal -0.998112 0.0614223 0
    outer loop
      vertex 101 26.8763 24.4
      vertex 101.2 30.1263 25.4
      vertex 101.2 30.1263 24.4
    endloop
  endfacet
  facet normal -0.998112 0.0614223 0
    outer loop
      vertex 101.2 30.1263 25.4
      vertex 101 26.8763 24.4
      vertex 101 26.8763 25.4
    endloop
  endfacet
  facet normal 0 -1 0
    outer loop
      vertex 62.7524 21.7763 24.4
      vertex 66.8024 21.7763 25.4
      vertex 62.7524 21.7763 25.4
    endloop
  endfacet
  facet normal 0 -1 -0
    outer loop
      vertex 66.8024 21.7763 25.4
      vertex 62.7524 21.7763 24.4
      vertex 66.8024 21.7763 24.4
    endloop
  endfacet
  facet normal -0.691454 0.72242 0
    outer loop
      vertex 64.5511 23.4979 24.4
      vertex 62.7524 21.7763 25.4
      vertex 64.5511 23.4979 25.4
    endloop
  endfacet
  facet normal -0.691454 0.72242 0
    outer loop
      vertex 62.7524 21.7763 25.4
      vertex 64.5511 23.4979 24.4
      vertex 62.7524 21.7763 24.4
    endloop
  endfacet
  facet normal -0.757932 0.652333 0
    outer loop
      vertex 64.5511 23.4979 24.4
      vertex 65.7415 24.881 25.4
      vertex 65.7415 24.881 24.4
    endloop
  endfacet
  facet normal -0.757932 0.652333 0
    outer loop
      vertex 65.7415 24.881 25.4
      vertex 64.5511 23.4979 24.4
      vertex 64.5511 23.4979 25.4
    endloop
  endfacet
  facet normal -0.875535 0.483155 0
    outer loop
      vertex 65.7415 24.881 24.4
      vertex 66.3999 26.0741 25.4
      vertex 66.3999 26.0741 24.4
    endloop
  endfacet
  facet normal -0.875535 0.483155 0
    outer loop
      vertex 66.3999 26.0741 25.4
      vertex 65.7415 24.881 24.4
      vertex 65.7415 24.881 25.4
    endloop
  endfacet
  facet normal -0.98489 0.173181 0
    outer loop
      vertex 66.3999 26.0741 24.4
      vertex 66.6025 27.2263 25.4
      vertex 66.6025 27.2263 24.4
    endloop
  endfacet
  facet normal -0.98489 0.173181 0
    outer loop
      vertex 66.6025 27.2263 25.4
      vertex 66.3999 26.0741 24.4
      vertex 66.3999 26.0741 25.4
    endloop
  endfacet
  facet normal -0.983543 -0.180676 0
    outer loop
      vertex 66.6025 27.2263 24.4
      vertex 66.4267 28.1833 25.4
      vertex 66.4267 28.1833 24.4
    endloop
  endfacet
  facet normal -0.983543 -0.180676 0
    outer loop
      vertex 66.4267 28.1833 25.4
      vertex 66.6025 27.2263 24.4
      vertex 66.6025 27.2263 25.4
    endloop
  endfacet
  facet normal -0.832686 -0.553745 0
    outer loop
      vertex 66.4267 28.1833 24.4
      vertex 65.9181 28.9481 25.4
      vertex 65.9181 28.9481 24.4
    endloop
  endfacet
  facet normal -0.832686 -0.553745 0
    outer loop
      vertex 65.9181 28.9481 25.4
      vertex 66.4267 28.1833 24.4
      vertex 66.4267 28.1833 25.4
    endloop
  endfacet
  facet normal -0.529014 -0.848613 0
    outer loop
      vertex 65.1048 29.4551 24.4
      vertex 65.9181 28.9481 25.4
      vertex 65.1048 29.4551 25.4
    endloop
  endfacet
  facet normal -0.529014 -0.848613 -0
    outer loop
      vertex 65.9181 28.9481 25.4
      vertex 65.1048 29.4551 24.4
      vertex 65.9181 28.9481 24.4
    endloop
  endfacet
  facet normal -0.16613 -0.986104 0
    outer loop
      vertex 64.015 29.6387 24.4
      vertex 65.1048 29.4551 25.4
      vertex 64.015 29.6387 25.4
    endloop
  endfacet
  facet normal -0.16613 -0.986104 -0
    outer loop
      vertex 65.1048 29.4551 25.4
      vertex 64.015 29.6387 24.4
      vertex 65.1048 29.4551 24.4
    endloop
  endfacet
  facet normal 0.095703 -0.99541 0
    outer loop
      vertex 63.211 29.5614 24.4
      vertex 64.015 29.6387 25.4
      vertex 63.211 29.5614 25.4
    endloop
  endfacet
  facet normal 0.095703 -0.99541 0
    outer loop
      vertex 64.015 29.6387 25.4
      vertex 63.211 29.5614 24.4
      vertex 64.015 29.6387 24.4
    endloop
  endfacet
  facet normal 0.320074 -0.947392 0
    outer loop
      vertex 62.5243 29.3294 24.4
      vertex 63.211 29.5614 25.4
      vertex 62.5243 29.3294 25.4
    endloop
  endfacet
  facet normal 0.320074 -0.947392 0
    outer loop
      vertex 63.211 29.5614 25.4
      vertex 62.5243 29.3294 24.4
      vertex 63.211 29.5614 24.4
    endloop
  endfacet
  facet normal 0.543304 -0.839536 0
    outer loop
      vertex 61.9266 28.9426 24.4
      vertex 62.5243 29.3294 25.4
      vertex 61.9266 28.9426 25.4
    endloop
  endfacet
  facet normal 0.543304 -0.839536 0
    outer loop
      vertex 62.5243 29.3294 25.4
      vertex 61.9266 28.9426 24.4
      vertex 62.5243 29.3294 24.4
    endloop
  endfacet
  facet normal 0.710183 -0.704017 0
    outer loop
      vertex 61.3899 28.4012 25.4
      vertex 61.9266 28.9426 24.4
      vertex 61.9266 28.9426 25.4
    endloop
  endfacet
  facet normal 0.710183 -0.704017 0
    outer loop
      vertex 61.9266 28.9426 24.4
      vertex 61.3899 28.4012 25.4
      vertex 61.3899 28.4012 24.4
    endloop
  endfacet
  facet normal 0.604334 0.796731 -0
    outer loop
      vertex 62.115 27.8512 24.4
      vertex 61.3899 28.4012 25.4
      vertex 62.115 27.8512 25.4
    endloop
  endfacet
  facet normal 0.604334 0.796731 0
    outer loop
      vertex 61.3899 28.4012 25.4
      vertex 62.115 27.8512 24.4
      vertex 61.3899 28.4012 24.4
    endloop
  endfacet
  facet normal -0.714098 0.700045 0
    outer loop
      vertex 62.115 27.8512 24.4
      vertex 62.5185 28.2628 25.4
      vertex 62.5185 28.2628 24.4
    endloop
  endfacet
  facet normal -0.714098 0.700045 0
    outer loop
      vertex 62.5185 28.2628 25.4
      vertex 62.115 27.8512 24.4
      vertex 62.115 27.8512 25.4
    endloop
  endfacet
  facet normal -0.564299 0.825571 0
    outer loop
      vertex 62.9337 28.5466 24.4
      vertex 62.5185 28.2628 25.4
      vertex 62.9337 28.5466 25.4
    endloop
  endfacet
  facet normal -0.564299 0.825571 0
    outer loop
      vertex 62.5185 28.2628 25.4
      vertex 62.9337 28.5466 24.4
      vertex 62.5185 28.2628 24.4
    endloop
  endfacet
  facet normal -0.328878 0.944372 0
    outer loop
      vertex 63.4052 28.7108 24.4
      vertex 62.9337 28.5466 25.4
      vertex 63.4052 28.7108 25.4
    endloop
  endfacet
  facet normal -0.328878 0.944372 0
    outer loop
      vertex 62.9337 28.5466 25.4
      vertex 63.4052 28.7108 24.4
      vertex 62.9337 28.5466 24.4
    endloop
  endfacet
  facet normal -0.0920576 0.995754 0
    outer loop
      vertex 63.9774 28.7637 24.4
      vertex 63.4052 28.7108 25.4
      vertex 63.9774 28.7637 25.4
    endloop
  endfacet
  facet normal -0.0920576 0.995754 0
    outer loop
      vertex 63.4052 28.7108 25.4
      vertex 63.9774 28.7637 24.4
      vertex 63.4052 28.7108 24.4
    endloop
  endfacet
  facet normal 0.166007 0.986125 -0
    outer loop
      vertex 64.6237 28.6549 24.4
      vertex 63.9774 28.7637 25.4
      vertex 64.6237 28.6549 25.4
    endloop
  endfacet
  facet normal 0.166007 0.986125 0
    outer loop
      vertex 63.9774 28.7637 25.4
      vertex 64.6237 28.6549 24.4
      vertex 63.9774 28.7637 24.4
    endloop
  endfacet
  facet normal 0.541592 0.840641 -0
    outer loop
      vertex 65.1072 28.3434 24.4
      vertex 64.6237 28.6549 25.4
      vertex 65.1072 28.3434 25.4
    endloop
  endfacet
  facet normal 0.541592 0.840641 0
    outer loop
      vertex 64.6237 28.6549 25.4
      vertex 65.1072 28.3434 24.4
      vertex 64.6237 28.6549 24.4
    endloop
  endfacet
  facet normal 0.851557 0.524262 0
    outer loop
      vertex 65.4101 27.8514 25.4
      vertex 65.1072 28.3434 24.4
      vertex 65.1072 28.3434 25.4
    endloop
  endfacet
  facet normal 0.851557 0.524262 0
    outer loop
      vertex 65.1072 28.3434 24.4
      vertex 65.4101 27.8514 25.4
      vertex 65.4101 27.8514 24.4
    endloop
  endfacet
  facet normal 0.98723 0.159299 0
    outer loop
      vertex 65.515 27.2013 25.4
      vertex 65.4101 27.8514 24.4
      vertex 65.4101 27.8514 25.4
    endloop
  endfacet
  facet normal 0.98723 0.159299 0
    outer loop
      vertex 65.4101 27.8514 24.4
      vertex 65.515 27.2013 25.4
      vertex 65.515 27.2013 24.4
    endloop
  endfacet
  facet normal 0.987696 -0.156384 0
    outer loop
      vertex 65.3548 26.1895 25.4
      vertex 65.515 27.2013 24.4
      vertex 65.515 27.2013 25.4
    endloop
  endfacet
  facet normal 0.987696 -0.156384 0
    outer loop
      vertex 65.515 27.2013 24.4
      vertex 65.3548 26.1895 25.4
      vertex 65.3548 26.1895 24.4
    endloop
  endfacet
  facet normal 0.875874 -0.48254 0
    outer loop
      vertex 64.7587 25.1075 25.4
      vertex 65.3548 26.1895 24.4
      vertex 65.3548 26.1895 25.4
    endloop
  endfacet
  facet normal 0.875874 -0.48254 0
    outer loop
      vertex 65.3548 26.1895 24.4
      vertex 64.7587 25.1075 25.4
      vertex 64.7587 25.1075 24.4
    endloop
  endfacet
  facet normal 0.757995 -0.652261 0
    outer loop
      vertex 63.5533 23.7067 25.4
      vertex 64.7587 25.1075 24.4
      vertex 64.7587 25.1075 25.4
    endloop
  endfacet
  facet normal 0.757995 -0.652261 0
    outer loop
      vertex 64.7587 25.1075 24.4
      vertex 63.5533 23.7067 25.4
      vertex 63.5533 23.7067 24.4
    endloop
  endfacet
  facet normal 0.703469 -0.710726 0
    outer loop
      vertex 61.565 21.7387 24.4
      vertex 63.5533 23.7067 25.4
      vertex 61.565 21.7387 25.4
    endloop
  endfacet
  facet normal 0.703469 -0.710726 0
    outer loop
      vertex 63.5533 23.7067 25.4
      vertex 61.565 21.7387 24.4
      vertex 63.5533 23.7067 24.4
    endloop
  endfacet
  facet normal 1 -0 0
    outer loop
      vertex 61.565 20.8888 25.4
      vertex 61.565 21.7387 24.4
      vertex 61.565 21.7387 25.4
    endloop
  endfacet
  facet normal 1 0 0
    outer loop
      vertex 61.565 21.7387 24.4
      vertex 61.565 20.8888 25.4
      vertex 61.565 20.8888 24.4
    endloop
  endfacet
  facet normal 0 1 -0
    outer loop
      vertex 66.6775 20.8888 24.4
      vertex 61.565 20.8888 25.4
      vertex 66.6775 20.8888 25.4
    endloop
  endfacet
  facet normal 0 1 0
    outer loop
      vertex 61.565 20.8888 25.4
      vertex 66.6775 20.8888 24.4
      vertex 61.565 20.8888 24.4
    endloop
  endfacet
  facet normal -0.990242 0.139359 0
    outer loop
      vertex 66.6775 20.8888 24.4
      vertex 66.8024 21.7763 25.4
      vertex 66.8024 21.7763 24.4
    endloop
  endfacet
  facet normal -0.990242 0.139359 0
    outer loop
      vertex 66.8024 21.7763 25.4
      vertex 66.6775 20.8888 24.4
      vertex 66.6775 20.8888 25.4
    endloop
  endfacet
  facet normal 0 1 -0
    outer loop
      vertex 96.5007 22.9887 24.4
      vertex 95.3882 22.9887 25.4
      vertex 96.5007 22.9887 25.4
    endloop
  endfacet
  facet normal 0 1 0
    outer loop
      vertex 95.3882 22.9887 25.4
      vertex 96.5007 22.9887 24.4
      vertex 95.3882 22.9887 24.4
    endloop
  endfacet
  facet normal -1 0 0
    outer loop
      vertex 96.5007 22.9887 24.4
      vertex 96.5007 23.8138 25.4
      vertex 96.5007 23.8138 24.4
    endloop
  endfacet
  facet normal -1 -0 0
    outer loop
      vertex 96.5007 23.8138 25.4
      vertex 96.5007 22.9887 24.4
      vertex 96.5007 22.9887 25.4
    endloop
  endfacet
  facet normal 0 -1 0
    outer loop
      vertex 95.3882 23.8138 24.4
      vertex 96.5007 23.8138 25.4
      vertex 95.3882 23.8138 25.4
    endloop
  endfacet
  facet normal 0 -1 -0
    outer loop
      vertex 96.5007 23.8138 25.4
      vertex 95.3882 23.8138 24.4
      vertex 96.5007 23.8138 24.4
    endloop
  endfacet
  facet normal -1 0 0
    outer loop
      vertex 95.3882 23.8138 24.4
      vertex 95.3882 26.2637 25.4
      vertex 95.3882 26.2637 24.4
    endloop
  endfacet
  facet normal -1 -0 0
    outer loop
      vertex 95.3882 26.2637 25.4
      vertex 95.3882 23.8138 24.4
      vertex 95.3882 23.8138 25.4
    endloop
  endfacet
  facet normal 0 -1 0
    outer loop
      vertex 94.4757 26.2637 24.4
      vertex 95.3882 26.2637 25.4
      vertex 94.4757 26.2637 25.4
    endloop
  endfacet
  facet normal 0 -1 -0
    outer loop
      vertex 95.3882 26.2637 25.4
      vertex 94.4757 26.2637 24.4
      vertex 95.3882 26.2637 24.4
    endloop
  endfacet
  facet normal 0.999363 -0.035693 0
    outer loop
      vertex 94.3882 23.8138 25.4
      vertex 94.4757 26.2637 24.4
      vertex 94.4757 26.2637 25.4
    endloop
  endfacet
  facet normal 0.999363 -0.035693 0
    outer loop
      vertex 94.4757 26.2637 24.4
      vertex 94.3882 23.8138 25.4
      vertex 94.3882 23.8138 24.4
    endloop
  endfacet
  facet normal 0 -1 0
    outer loop
      vertex 91.9007 23.8138 24.4
      vertex 94.3882 23.8138 25.4
      vertex 91.9007 23.8138 25.4
    endloop
  endfacet
  facet normal 0 -1 -0
    outer loop
      vertex 94.3882 23.8138 25.4
      vertex 91.9007 23.8138 24.4
      vertex 94.3882 23.8138 24.4
    endloop
  endfacet
  facet normal -0.921317 0.388813 0
    outer loop
      vertex 91.9007 23.8138 24.4
      vertex 94.2007 29.2638 25.4
      vertex 94.2007 29.2638 24.4
    endloop
  endfacet
  facet normal -0.921317 0.388813 0
    outer loop
      vertex 94.2007 29.2638 25.4
      vertex 91.9007 23.8138 24.4
      vertex 91.9007 23.8138 25.4
    endloop
  endfacet
  facet normal -0.398637 -0.917109 0
    outer loop
      vertex 93.3382 29.6387 24.4
      vertex 94.2007 29.2638 25.4
      vertex 93.3382 29.6387 25.4
    endloop
  endfacet
  facet normal -0.398637 -0.917109 -0
    outer loop
      vertex 94.2007 29.2638 25.4
      vertex 93.3382 29.6387 24.4
      vertex 94.2007 29.2638 24.4
    endloop
  endfacet
  facet normal 0.918639 -0.395099 0
    outer loop
      vertex 90.8007 23.7388 25.4
      vertex 93.3382 29.6387 24.4
      vertex 93.3382 29.6387 25.4
    endloop
  endfacet
  facet normal 0.918639 -0.395099 0
    outer loop
      vertex 93.3382 29.6387 24.4
      vertex 90.8007 23.7388 25.4
      vertex 90.8007 23.7388 24.4
    endloop
  endfacet
  facet normal 1 -0 0
    outer loop
      vertex 90.8007 22.9887 25.4
      vertex 90.8007 23.7388 24.4
      vertex 90.8007 23.7388 25.4
    endloop
  endfacet
  facet normal 1 0 0
    outer loop
      vertex 90.8007 23.7388 24.4
      vertex 90.8007 22.9887 25.4
      vertex 90.8007 22.9887 24.4
    endloop
  endfacet
  facet normal 0 1 -0
    outer loop
      vertex 94.3757 22.9887 24.4
      vertex 90.8007 22.9887 25.4
      vertex 94.3757 22.9887 25.4
    endloop
  endfacet
  facet normal 0 1 0
    outer loop
      vertex 90.8007 22.9887 25.4
      vertex 94.3757 22.9887 24.4
      vertex 90.8007 22.9887 24.4
    endloop
  endfacet
  facet normal 1 -0 0
    outer loop
      vertex 94.3757 20.8888 25.4
      vertex 94.3757 22.9887 24.4
      vertex 94.3757 22.9887 25.4
    endloop
  endfacet
  facet normal 1 0 0
    outer loop
      vertex 94.3757 22.9887 24.4
      vertex 94.3757 20.8888 25.4
      vertex 94.3757 20.8888 24.4
    endloop
  endfacet
  facet normal 0 1 -0
    outer loop
      vertex 95.3882 20.8888 24.4
      vertex 94.3757 20.8888 25.4
      vertex 95.3882 20.8888 25.4
    endloop
  endfacet
  facet normal 0 1 0
    outer loop
      vertex 94.3757 20.8888 25.4
      vertex 95.3882 20.8888 24.4
      vertex 94.3757 20.8888 24.4
    endloop
  endfacet
  facet normal -1 0 0
    outer loop
      vertex 95.3882 20.8888 24.4
      vertex 95.3882 22.9887 25.4
      vertex 95.3882 22.9887 24.4
    endloop
  endfacet
  facet normal -1 -0 0
    outer loop
      vertex 95.3882 22.9887 25.4
      vertex 95.3882 20.8888 24.4
      vertex 95.3882 20.8888 25.4
    endloop
  endfacet
  facet normal 0 -1 0
    outer loop
      vertex 36.0668 21.7387 24.4
      vertex 37.8668 21.7387 25.4
      vertex 36.0668 21.7387 25.4
    endloop
  endfacet
  facet normal 0 -1 -0
    outer loop
      vertex 37.8668 21.7387 25.4
      vertex 36.0668 21.7387 24.4
      vertex 37.8668 21.7387 24.4
    endloop
  endfacet
  facet normal -1 0 0
    outer loop
      vertex 36.0668 21.7387 24.4
      vertex 36.0668 29.4888 25.4
      vertex 36.0668 29.4888 24.4
    endloop
  endfacet
  facet normal -1 -0 0
    outer loop
      vertex 36.0668 29.4888 25.4
      vertex 36.0668 21.7387 24.4
      vertex 36.0668 21.7387 25.4
    endloop
  endfacet
  facet normal 0 -1 0
    outer loop
      vertex 35.1543 29.4888 24.4
      vertex 36.0668 29.4888 25.4
      vertex 35.1543 29.4888 25.4
    endloop
  endfacet
  facet normal 0 -1 -0
    outer loop
      vertex 36.0668 29.4888 25.4
      vertex 35.1543 29.4888 24.4
      vertex 36.0668 29.4888 24.4
    endloop
  endfacet
  facet normal 0.525478 -0.850807 0
    outer loop
      vertex 32.6042 27.9138 24.4
      vertex 35.1543 29.4888 25.4
      vertex 32.6042 27.9138 25.4
    endloop
  endfacet
  facet normal 0.525478 -0.850807 0
    outer loop
      vertex 35.1543 29.4888 25.4
      vertex 32.6042 27.9138 24.4
      vertex 35.1543 29.4888 24.4
    endloop
  endfacet
  facet normal 0.853671 0.520813 0
    outer loop
      vertex 33.0542 27.1762 25.4
      vertex 32.6042 27.9138 24.4
      vertex 32.6042 27.9138 25.4
    endloop
  endfacet
  facet normal 0.853671 0.520813 0
    outer loop
      vertex 32.6042 27.9138 24.4
      vertex 33.0542 27.1762 25.4
      vertex 33.0542 27.1762 24.4
    endloop
  endfacet
  facet normal -0.515325 0.856995 0
    outer loop
      vertex 35.0292 28.3638 24.4
      vertex 33.0542 27.1762 25.4
      vertex 35.0292 28.3638 25.4
    endloop
  endfacet
  facet normal -0.515325 0.856995 0
    outer loop
      vertex 33.0542 27.1762 25.4
      vertex 35.0292 28.3638 24.4
      vertex 33.0542 27.1762 24.4
    endloop
  endfacet
  facet normal 1 -0 0
    outer loop
      vertex 35.0292 21.7387 25.4
      vertex 35.0292 28.3638 24.4
      vertex 35.0292 28.3638 25.4
    endloop
  endfacet
  facet normal 1 0 0
    outer loop
      vertex 35.0292 28.3638 24.4
      vertex 35.0292 21.7387 25.4
      vertex 35.0292 21.7387 24.4
    endloop
  endfacet
  facet normal 0 -1 0
    outer loop
      vertex 32.9043 21.7387 24.4
      vertex 35.0292 21.7387 25.4
      vertex 32.9043 21.7387 25.4
    endloop
  endfacet
  facet normal 0 -1 -0
    outer loop
      vertex 35.0292 21.7387 25.4
      vertex 32.9043 21.7387 24.4
      vertex 35.0292 21.7387 24.4
    endloop
  endfacet
  facet normal 1 -0 0
    outer loop
      vertex 32.9043 20.8888 25.4
      vertex 32.9043 21.7387 24.4
      vertex 32.9043 21.7387 25.4
    endloop
  endfacet
  facet normal 1 0 0
    outer loop
      vertex 32.9043 21.7387 24.4
      vertex 32.9043 20.8888 25.4
      vertex 32.9043 20.8888 24.4
    endloop
  endfacet
  facet normal 0 1 -0
    outer loop
      vertex 37.8668 20.8888 24.4
      vertex 32.9043 20.8888 25.4
      vertex 37.8668 20.8888 25.4
    endloop
  endfacet
  facet normal 0 1 0
    outer loop
      vertex 32.9043 20.8888 25.4
      vertex 37.8668 20.8888 24.4
      vertex 32.9043 20.8888 24.4
    endloop
  endfacet
  facet normal -1 0 0
    outer loop
      vertex 37.8668 20.8888 24.4
      vertex 37.8668 21.7387 25.4
      vertex 37.8668 21.7387 24.4
    endloop
  endfacet
  facet normal -1 -0 0
    outer loop
      vertex 37.8668 21.7387 25.4
      vertex 37.8668 20.8888 24.4
      vertex 37.8668 20.8888 25.4
    endloop
  endfacet
  facet normal 0.841662 0.540004 0
    outer loop
      vertex 54.4782 20.8888 25.4
      vertex 52.6657 23.7138 24.4
      vertex 52.6657 23.7138 25.4
    endloop
  endfacet
  facet normal 0.841662 0.540004 0
    outer loop
      vertex 52.6657 23.7138 24.4
      vertex 54.4782 20.8888 25.4
      vertex 54.4782 20.8888 24.4
    endloop
  endfacet
  facet normal 0 1 -0
    outer loop
      vertex 55.7532 20.8888 24.4
      vertex 54.4782 20.8888 25.4
      vertex 55.7532 20.8888 25.4
    endloop
  endfacet
  facet normal 0 1 0
    outer loop
      vertex 54.4782 20.8888 25.4
      vertex 55.7532 20.8888 24.4
      vertex 54.4782 20.8888 24.4
    endloop
  endfacet
  facet normal -0.823871 -0.566777 0
    outer loop
      vertex 55.7532 20.8888 24.4
      vertex 53.3282 24.4138 25.4
      vertex 53.3282 24.4138 24.4
    endloop
  endfacet
  facet normal -0.823871 -0.566777 0
    outer loop
      vertex 53.3282 24.4138 25.4
      vertex 55.7532 20.8888 24.4
      vertex 55.7532 20.8888 25.4
    endloop
  endfacet
  facet normal -0.820506 0.571637 0
    outer loop
      vertex 53.3282 24.4138 24.4
      vertex 55.4531 27.4638 25.4
      vertex 55.4531 27.4638 24.4
    endloop
  endfacet
  facet normal -0.820506 0.571637 0
    outer loop
      vertex 55.4531 27.4638 25.4
      vertex 53.3282 24.4138 24.4
      vertex 53.3282 24.4138 25.4
    endloop
  endfacet
  facet normal 0 -1 0
    outer loop
      vertex 54.2657 27.4638 24.4
      vertex 55.4531 27.4638 25.4
      vertex 54.2657 27.4638 25.4
    endloop
  endfacet
  facet normal 0 -1 -0
    outer loop
      vertex 55.4531 27.4638 25.4
      vertex 54.2657 27.4638 24.4
      vertex 55.4531 27.4638 24.4
    endloop
  endfacet
  facet normal 0.845089 -0.534626 0
    outer loop
      vertex 52.7157 25.0137 25.4
      vertex 54.2657 27.4638 24.4
      vertex 54.2657 27.4638 25.4
    endloop
  endfacet
  facet normal 0.845089 -0.534626 0
    outer loop
      vertex 54.2657 27.4638 24.4
      vertex 52.7157 25.0137 25.4
      vertex 52.7157 25.0137 24.4
    endloop
  endfacet
  facet normal -0.847036 -0.531536 0
    outer loop
      vertex 52.7157 25.0137 24.4
      vertex 51.1782 27.4638 25.4
      vertex 51.1782 27.4638 24.4
    endloop
  endfacet
  facet normal -0.847036 -0.531536 0
    outer loop
      vertex 51.1782 27.4638 25.4
      vertex 52.7157 25.0137 24.4
      vertex 52.7157 25.0137 25.4
    endloop
  endfacet
  facet normal 0 -1 0
    outer loop
      vertex 49.9532 27.4638 24.4
      vertex 51.1782 27.4638 25.4
      vertex 49.9532 27.4638 25.4
    endloop
  endfacet
  facet normal 0 -1 -0
    outer loop
      vertex 51.1782 27.4638 25.4
      vertex 49.9532 27.4638 24.4
      vertex 51.1782 27.4638 24.4
    endloop
  endfacet
  facet normal 0.823275 0.567643 0
    outer loop
      vertex 52.0907 24.3637 25.4
      vertex 49.9532 27.4638 24.4
      vertex 49.9532 27.4638 25.4
    endloop
  endfacet
  facet normal 0.823275 0.567643 0
    outer loop
      vertex 49.9532 27.4638 24.4
      vertex 52.0907 24.3637 25.4
      vertex 52.0907 24.3637 24.4
    endloop
  endfacet
  facet normal 0.81867 -0.574264 0
    outer loop
      vertex 49.6532 20.8888 25.4
      vertex 52.0907 24.3637 24.4
      vertex 52.0907 24.3637 25.4
    endloop
  endfacet
  facet normal 0.81867 -0.574264 0
    outer loop
      vertex 52.0907 24.3637 24.4
      vertex 49.6532 20.8888 25.4
      vertex 49.6532 20.8888 24.4
    endloop
  endfacet
  facet normal 0 1 -0
    outer loop
      vertex 50.8406 20.8888 24.4
      vertex 49.6532 20.8888 25.4
      vertex 50.8406 20.8888 25.4
    endloop
  endfacet
  facet normal 0 1 0
    outer loop
      vertex 49.6532 20.8888 25.4
      vertex 50.8406 20.8888 24.4
      vertex 49.6532 20.8888 24.4
    endloop
  endfacet
  facet normal -0.839955 0.542656 0
    outer loop
      vertex 50.8406 20.8888 24.4
      vertex 52.6657 23.7138 25.4
      vertex 52.6657 23.7138 24.4
    endloop
  endfacet
  facet normal -0.839955 0.542656 0
    outer loop
      vertex 52.6657 23.7138 25.4
      vertex 50.8406 20.8888 24.4
      vertex 50.8406 20.8888 25.4
    endloop
  endfacet
  facet normal 0.841662 0.540004 0
    outer loop
      vertex 83.7264 20.8888 25.4
      vertex 81.9139 23.7138 24.4
      vertex 81.9139 23.7138 25.4
    endloop
  endfacet
  facet normal 0.841662 0.540004 0
    outer loop
      vertex 81.9139 23.7138 24.4
      vertex 83.7264 20.8888 25.4
      vertex 83.7264 20.8888 24.4
    endloop
  endfacet
  facet normal 0 1 -0
    outer loop
      vertex 85.0015 20.8888 24.4
      vertex 83.7264 20.8888 25.4
      vertex 85.0015 20.8888 25.4
    endloop
  endfacet
  facet normal 0 1 0
    outer loop
      vertex 83.7264 20.8888 25.4
      vertex 85.0015 20.8888 24.4
      vertex 83.7264 20.8888 24.4
    endloop
  endfacet
  facet normal -0.82386 -0.566793 0
    outer loop
      vertex 85.0015 20.8888 24.4
      vertex 82.5764 24.4138 25.4
      vertex 82.5764 24.4138 24.4
    endloop
  endfacet
  facet normal -0.82386 -0.566793 0
    outer loop
      vertex 82.5764 24.4138 25.4
      vertex 85.0015 20.8888 24.4
      vertex 85.0015 20.8888 25.4
    endloop
  endfacet
  facet normal -0.820494 0.571655 0
    outer loop
      vertex 82.5764 24.4138 24.4
      vertex 84.7014 27.4638 25.4
      vertex 84.7014 27.4638 24.4
    endloop
  endfacet
  facet normal -0.820494 0.571655 0
    outer loop
      vertex 84.7014 27.4638 25.4
      vertex 82.5764 24.4138 24.4
      vertex 82.5764 24.4138 25.4
    endloop
  endfacet
  facet normal 0 -1 0
    outer loop
      vertex 83.5139 27.4638 24.4
      vertex 84.7014 27.4638 25.4
      vertex 83.5139 27.4638 25.4
    endloop
  endfacet
  facet normal 0 -1 -0
    outer loop
      vertex 84.7014 27.4638 25.4
      vertex 83.5139 27.4638 24.4
      vertex 84.7014 27.4638 24.4
    endloop
  endfacet
  facet normal 0.845104 -0.534601 0
    outer loop
      vertex 81.964 25.0137 25.4
      vertex 83.5139 27.4638 24.4
      vertex 83.5139 27.4638 25.4
    endloop
  endfacet
  facet normal 0.845104 -0.534601 0
    outer loop
      vertex 83.5139 27.4638 24.4
      vertex 81.964 25.0137 25.4
      vertex 81.964 25.0137 24.4
    endloop
  endfacet
  facet normal -0.84702 -0.531561 0
    outer loop
      vertex 81.964 25.0137 24.4
      vertex 80.4264 27.4638 25.4
      vertex 80.4264 27.4638 24.4
    endloop
  endfacet
  facet normal -0.84702 -0.531561 0
    outer loop
      vertex 80.4264 27.4638 25.4
      vertex 81.964 25.0137 24.4
      vertex 81.964 25.0137 25.4
    endloop
  endfacet
  facet normal 0 -1 0
    outer loop
      vertex 79.2014 27.4638 24.4
      vertex 80.4264 27.4638 25.4
      vertex 79.2014 27.4638 25.4
    endloop
  endfacet
  facet normal 0 -1 -0
    outer loop
      vertex 80.4264 27.4638 25.4
      vertex 79.2014 27.4638 24.4
      vertex 80.4264 27.4638 24.4
    endloop
  endfacet
  facet normal 0.823275 0.567643 0
    outer loop
      vertex 81.3389 24.3637 25.4
      vertex 79.2014 27.4638 24.4
      vertex 79.2014 27.4638 25.4
    endloop
  endfacet
  facet normal 0.823275 0.567643 0
    outer loop
      vertex 79.2014 27.4638 24.4
      vertex 81.3389 24.3637 25.4
      vertex 81.3389 24.3637 24.4
    endloop
  endfacet
  facet normal 0.81867 -0.574264 0
    outer loop
      vertex 78.9014 20.8888 25.4
      vertex 81.3389 24.3637 24.4
      vertex 81.3389 24.3637 25.4
    endloop
  endfacet
  facet normal 0.81867 -0.574264 0
    outer loop
      vertex 81.3389 24.3637 24.4
      vertex 78.9014 20.8888 25.4
      vertex 78.9014 20.8888 24.4
    endloop
  endfacet
  facet normal 0 1 -0
    outer loop
      vertex 80.0889 20.8888 24.4
      vertex 78.9014 20.8888 25.4
      vertex 80.0889 20.8888 25.4
    endloop
  endfacet
  facet normal 0 1 0
    outer loop
      vertex 78.9014 20.8888 25.4
      vertex 80.0889 20.8888 24.4
      vertex 78.9014 20.8888 24.4
    endloop
  endfacet
  facet normal -0.839969 0.542635 0
    outer loop
      vertex 80.0889 20.8888 24.4
      vertex 81.9139 23.7138 25.4
      vertex 81.9139 23.7138 24.4
    endloop
  endfacet
  facet normal -0.839969 0.542635 0
    outer loop
      vertex 81.9139 23.7138 25.4
      vertex 80.0889 20.8888 24.4
      vertex 80.0889 20.8888 25.4
    endloop
  endfacet
endsolid OpenSCAD_Model
